PathFileType	4	(X/Y/Z)	TVC_20_Cal_03_0_static_RCNL2025.trc
DataRate	CameraRate	NumFrames	NumMarkers	Units	OrigDataRate	OrigDataStartFrame	OrigNumFrames
100	100	11	27	mm	100	50	133
Frame#	Time	R_Shoulder			L_Shoulder			C7			J_Notch			R_Elbow			L_Elbow			R_Wrist			L_Wrist			R_Asis			L_Asis			R_Psis			L_Psis			Sacral			Thoracic			Sternum			R_Thigh_Lateral			R_Knee_Lateral			R_Shank_Lateral			R_Ankle_Lateral			R_Heel			R_Toe			L_Thigh_Lateral			L_Knee_Lateral			L_Shank_Lateral			L_Ankle_Lateral			L_Heel			L_Toe		
		X1	Y1	Z1	X2	Y2	Z2	X3	Y3	Z3	X4	Y4	Z4	X5	Y5	Z5	X6	Y6	Z6	X7	Y7	Z7	X8	Y8	Z8	X9	Y9	Z9	X10	Y10	Z10	X11	Y11	Z11	X12	Y12	Z12	X13	Y13	Z13	X14	Y14	Z14	X15	Y15	Z15	X16	Y16	Z16	X17	Y17	Z17	X18	Y18	Z18	X19	Y19	Z19	X20	Y20	Z20	X21	Y21	Z21	X22	Y22	Z22	X23	Y23	Z23	X24	Y24	Z24	X25	Y25	Z25	X26	Y26	Z26	X27	Y27	Z27
50	0.49000000	-226.144089	1427.234009	-40.376846	-268.416901	1432.883789	-387.710022	-274.071198	1469.814331	-195.860275	-149.715622	1344.313843	-213.670685	-243.966187	1154.459473	124.276794	-278.283722	1131.282715	-512.036865	-134.519344	924.017975	182.784889	-138.850693	915.995392	-561.588196	-193.283691	1010.612854	-60.693523	-176.629517	1018.999390	-340.927368	-340.044800	1013.842407	-162.648895	-347.874725	1007.087341	-251.167709	-343.959763	1010.464874	-206.908302	-375.371826	1238.201050	-209.164307	-134.285645	1200.597778	-217.898209	-241.630035	679.878845	3.054158	-262.585358	470.967499	-59.538254	-309.449493	312.996338	-16.195824	-316.219696	76.298759	-88.866776	-355.499481	52.351559	-143.448730	-167.523315	36.666824	-81.704071	-230.563187	654.005554	-412.453369	-241.618103	462.933167	-356.613831	-256.966736	316.599091	-398.114075	-280.187073	74.288811	-318.943176	-325.997131	62.559082	-276.846588	-138.039612	38.030922	-294.603760
51	0.50000000	-226.163788	1427.254517	-40.389973	-268.439697	1432.910156	-387.686401	-274.102570	1469.812988	-195.838272	-149.726395	1344.345947	-213.667648	-243.867264	1154.472168	124.311829	-278.258636	1131.302979	-512.065308	-134.417274	924.071320	182.833450	-138.853085	915.993347	-561.611816	-193.323914	1010.630859	-60.655071	-176.691818	1019.035645	-341.047150	-340.037231	1013.851868	-162.647751	-347.846344	1007.130676	-251.193756	-343.941788	1010.491272	-206.920753	-375.384125	1238.157104	-209.147812	-134.260956	1200.618652	-217.897705	-241.537079	679.831238	2.993363	-262.602966	470.913025	-59.519833	-309.543945	312.974915	-16.229162	-316.228882	76.248474	-88.744484	-355.413513	52.361778	-143.490585	-167.563919	36.651321	-81.740440	-230.627945	653.962585	-412.495270	-241.591553	462.956177	-356.622192	-257.023529	316.670624	-398.154419	-280.141510	74.298950	-318.960754	-325.992188	62.562916	-276.855072	-138.070053	37.991310	-294.599915
52	0.51000000	-226.182556	1427.205933	-40.404228	-268.490967	1432.906982	-387.673553	-274.165283	1469.820801	-195.881348	-149.857697	1344.339600	-213.689545	-243.836105	1154.483276	124.332840	-278.292633	1131.356812	-512.105347	-134.501076	924.194000	183.032883	-138.882801	916.031097	-561.588013	-193.311401	1010.686340	-60.684349	-176.713715	1019.055176	-340.988464	-340.043945	1013.813171	-162.605942	-347.945862	1007.279907	-251.129776	-343.994904	1010.546539	-206.867859	-375.450928	1238.145508	-209.107574	-134.240082	1200.677002	-217.929932	-241.936005	680.064026	3.061080	-262.617737	470.934296	-59.474064	-309.555389	313.006470	-16.254047	-316.168701	76.291931	-88.894737	-355.336182	52.358158	-143.430115	-167.601440	36.459824	-81.714478	-230.573471	653.999146	-412.485992	-241.592087	462.970245	-356.598480	-256.994904	316.597778	-398.094299	-280.087250	74.304863	-318.846741	-326.010010	62.511703	-276.829437	-138.067032	38.009785	-294.580750
53	0.52000000	-226.249634	1427.240234	-40.420895	-268.725555	1432.969360	-387.798737	-274.247620	1469.856934	-195.857101	-149.705383	1344.432983	-213.732147	-243.848312	1154.486938	124.343903	-278.308777	1131.271729	-512.097351	-134.388004	924.183960	182.905281	-138.874371	916.027252	-561.558838	-193.313095	1010.647461	-60.683960	-176.716873	1019.039978	-340.993774	-340.108612	1013.820557	-162.683380	-348.019836	1007.234436	-251.116440	-344.064224	1010.527496	-206.899910	-375.535797	1238.189331	-209.138351	-134.207123	1200.744141	-217.962845	-242.090897	680.227295	3.116881	-262.644592	470.934387	-59.501396	-309.559143	313.024567	-16.251255	-316.227051	76.328926	-88.956711	-355.385712	52.480995	-143.340881	-167.573334	36.619656	-81.731087	-230.664948	654.092529	-412.438568	-241.583832	462.967468	-356.607819	-257.324829	316.848846	-398.222473	-280.111694	74.215302	-318.964996	-325.845093	62.454639	-276.835419	-138.146179	38.010906	-294.562378
54	0.53000000	-226.211945	1427.246338	-40.420689	-268.748352	1432.984985	-387.780426	-274.334351	1469.845703	-195.886383	-149.793427	1344.506470	-213.750015	-243.824081	1154.574951	124.328415	-278.387054	1131.333862	-512.020264	-134.432785	924.249725	182.985100	-138.894669	916.019226	-561.567505	-193.398895	1010.636230	-60.741409	-176.677551	1019.144531	-341.041962	-340.122009	1013.855469	-162.681473	-347.997345	1007.260925	-251.215927	-344.059677	1010.558197	-206.948700	-375.515564	1238.175171	-209.182907	-134.198776	1200.761841	-217.919128	-241.942368	679.827087	2.999061	-262.681335	470.957153	-59.528202	-309.610718	313.005402	-16.191784	-316.268555	76.262451	-88.954292	-355.248413	52.336113	-143.707993	-167.561829	36.675789	-81.738960	-230.655029	653.982788	-412.474030	-241.609161	462.978058	-356.616638	-257.141418	316.684113	-398.191437	-280.062592	74.170303	-319.009521	-325.977570	62.512501	-276.822296	-138.135040	38.006599	-294.595551
55	0.54000000	-226.204605	1427.297485	-40.422760	-268.733765	1432.953491	-387.806305	-274.341156	1469.936768	-195.897278	-149.761063	1344.502319	-213.804428	-243.868683	1154.619507	124.332153	-278.422577	1131.340698	-512.047974	-134.452572	924.337738	183.064621	-138.876583	916.012939	-561.559174	-193.343094	1010.557434	-60.803333	-176.789307	1019.112000	-341.110352	-340.123627	1013.894348	-162.679474	-348.018097	1007.301941	-251.178268	-344.070862	1010.598145	-206.928871	-375.528687	1238.143066	-209.156464	-134.194321	1200.825562	-217.972061	-241.686157	679.723389	2.835893	-262.699615	470.976776	-59.518387	-309.643433	313.046844	-16.197721	-316.181549	76.325439	-88.874908	-355.379272	52.325417	-143.523300	-167.473694	36.662994	-81.737793	-230.663223	654.054993	-412.427216	-241.661911	462.990265	-356.649109	-257.089508	316.671021	-398.182556	-280.062378	74.184944	-318.990784	-325.850189	62.459850	-276.835114	-138.102676	38.078945	-294.603333
56	0.55000000	-226.158066	1427.249146	-40.429920	-268.799896	1432.965576	-387.824432	-274.333435	1469.936646	-195.926147	-149.746689	1344.479248	-213.781479	-243.736618	1154.658691	124.352409	-278.424194	1131.296265	-512.063171	-134.286999	924.398224	183.020569	-138.917381	916.047485	-561.571930	-193.256836	1010.714355	-60.828865	-176.829361	1019.097778	-341.071655	-340.125702	1013.877991	-162.680740	-348.046539	1007.330200	-251.167023	-344.086121	1010.604095	-206.923882	-375.543732	1238.149414	-209.136078	-134.118225	1200.817627	-218.072632	-241.608154	679.759399	2.907059	-262.694824	470.992065	-59.549263	-309.607635	313.041687	-16.204382	-316.215942	76.323051	-88.814461	-355.356384	52.324959	-143.404724	-167.477661	36.654312	-81.746193	-230.754471	653.955017	-412.520752	-241.653122	462.994415	-356.685577	-257.087219	316.682587	-398.159088	-280.157532	74.211098	-318.860901	-325.829590	62.430000	-276.846039	-138.121307	38.023407	-294.588593
57	0.56000000	-226.144272	1427.248657	-40.428154	-268.812805	1433.007568	-387.825989	-274.366425	1469.897217	-195.994446	-149.724014	1344.550293	-213.820251	-243.691635	1154.644043	124.335800	-278.435852	1131.281982	-512.042725	-134.184219	924.435913	182.946091	-138.950516	916.015686	-561.570496	-193.464508	1010.790039	-60.790916	-176.850876	1019.062500	-341.054535	-340.198883	1013.883972	-162.643188	-348.058502	1007.287903	-251.149750	-344.128693	1010.585938	-206.896469	-375.607361	1238.161011	-209.192596	-134.159775	1200.842529	-217.970886	-241.610580	679.851440	2.924815	-262.732758	471.031891	-59.604511	-309.636902	313.048950	-16.285904	-316.235992	76.295364	-88.931557	-355.482452	52.361866	-143.441879	-167.499985	36.666233	-81.714699	-230.718597	653.935303	-412.524353	-241.710709	462.954315	-356.705627	-257.107697	316.620544	-398.147583	-280.169464	74.453430	-318.821014	-325.976379	62.549793	-276.857574	-138.126450	38.065445	-294.660339
58	0.57000000	-226.223938	1427.266724	-40.511082	-268.874634	1432.961548	-387.816406	-274.378082	1469.913818	-196.015778	-149.713043	1344.578125	-213.849915	-243.693512	1154.662720	124.338417	-278.437256	1131.282471	-512.040527	-134.038589	924.416565	182.794518	-138.991844	916.013367	-561.504944	-193.578720	1010.711304	-60.751156	-176.933212	1019.073669	-341.202118	-340.254364	1013.890747	-162.720779	-348.109344	1007.166138	-251.230789	-344.181854	1010.528442	-206.975784	-375.615753	1238.144531	-209.216980	-134.099686	1200.865967	-218.079636	-241.893356	680.122681	3.015036	-262.742065	471.014923	-59.598969	-309.633698	313.023499	-16.235800	-316.294250	76.309639	-88.918152	-355.492249	52.388603	-143.461121	-167.536942	36.542320	-81.724922	-230.729752	654.066223	-412.542297	-241.673767	462.977600	-356.679413	-257.144745	316.550262	-398.149200	-280.059174	74.171692	-319.015106	-325.857208	62.429577	-276.840118	-138.127075	38.020470	-294.623474
59	0.58000000	-226.237335	1427.274536	-40.517559	-268.918274	1432.947754	-387.872498	-274.459137	1469.859741	-195.975525	-149.714172	1344.578857	-213.876984	-243.714890	1154.655396	124.347878	-278.540283	1131.242676	-512.037903	-134.055855	924.500732	182.837990	-138.996769	915.992889	-561.509888	-193.532013	1010.736145	-60.795876	-176.960342	1019.081726	-341.201538	-340.266602	1013.812012	-162.729645	-348.046753	1007.057861	-251.315689	-344.156677	1010.434937	-207.022667	-375.585052	1238.114258	-209.254547	-134.159271	1200.986938	-218.138382	-242.020279	680.190430	3.066005	-262.748627	470.977142	-59.590065	-309.688629	313.012756	-16.269323	-316.260315	76.285011	-88.965805	-355.483521	52.383152	-143.465057	-167.507523	36.631710	-81.730347	-230.802078	653.984558	-412.498444	-241.677002	462.991791	-356.703857	-257.131561	316.602081	-398.144012	-280.164001	74.317139	-318.943542	-325.936737	62.464394	-276.908875	-138.076599	37.995995	-294.577820
60	0.59000000	-226.194916	1427.216919	-40.526958	-268.844360	1432.904297	-387.831665	-274.461151	1469.882080	-196.006485	-149.691818	1344.642700	-213.830338	-243.718201	1154.654297	124.346024	-278.553833	1131.301636	-512.008789	-133.897701	924.533600	182.792389	-139.030815	915.953918	-561.418335	-193.429321	1010.745178	-60.849041	-176.965378	1019.049866	-341.202545	-340.261475	1013.795166	-162.702606	-348.159515	1007.263306	-251.204163	-344.210495	1010.529236	-206.953384	-375.639740	1238.120361	-209.316849	-134.174622	1200.959229	-218.146393	-241.714737	679.872925	2.987669	-262.722015	471.006897	-59.554127	-309.620789	312.989349	-16.224499	-316.293457	76.296242	-88.918243	-355.413086	52.333687	-143.410370	-167.547501	36.589905	-81.693649	-230.885925	653.906433	-412.494354	-241.722610	462.909760	-356.699829	-257.118866	316.620087	-398.204620	-280.147980	74.299194	-318.946045	-325.994904	62.534271	-276.860321	-138.071106	37.995323	-294.575897
